G04 #@! TF.GenerationSoftware,KiCad,Pcbnew,(5.1.0)-1*
G04 #@! TF.CreationDate,2019-06-02T20:30:49+05:30*
G04 #@! TF.ProjectId,OpAmp,4f70416d-702e-46b6-9963-61645f706362,rev?*
G04 #@! TF.SameCoordinates,Original*
G04 #@! TF.FileFunction,Soldermask,Bot*
G04 #@! TF.FilePolarity,Negative*
%FSLAX46Y46*%
G04 Gerber Fmt 4.6, Leading zero omitted, Abs format (unit mm)*
G04 Created by KiCad (PCBNEW (5.1.0)-1) date 2019-06-02 20:30:49*
%MOMM*%
%LPD*%
G04 APERTURE LIST*
%ADD10C,0.100000*%
G04 APERTURE END LIST*
D10*
G36*
X154671009Y-111553591D02*
G01*
X155166658Y-111652181D01*
X156100440Y-112038967D01*
X156940822Y-112600492D01*
X157655508Y-113315178D01*
X158217033Y-114155560D01*
X158603819Y-115089342D01*
X158603819Y-115089344D01*
X158753731Y-115843000D01*
X158801000Y-116080641D01*
X158801000Y-117091359D01*
X158603819Y-118082658D01*
X158217033Y-119016440D01*
X157655508Y-119856822D01*
X156940822Y-120571508D01*
X156100440Y-121133033D01*
X155166658Y-121519819D01*
X154671008Y-121618410D01*
X154175361Y-121717000D01*
X153164639Y-121717000D01*
X152668992Y-121618410D01*
X152173342Y-121519819D01*
X151239560Y-121133033D01*
X150399178Y-120571508D01*
X149684492Y-119856822D01*
X149122967Y-119016440D01*
X148736181Y-118082658D01*
X148539000Y-117091359D01*
X148539000Y-116080641D01*
X148586270Y-115843000D01*
X148736181Y-115089344D01*
X148736181Y-115089342D01*
X149122967Y-114155560D01*
X149684492Y-113315178D01*
X150399178Y-112600492D01*
X151239560Y-112038967D01*
X152173342Y-111652181D01*
X152668991Y-111553591D01*
X153164639Y-111455000D01*
X154175361Y-111455000D01*
X154671009Y-111553591D01*
X154671009Y-111553591D01*
G37*
G36*
X105520903Y-115891075D02*
G01*
X105748571Y-115985378D01*
X105953466Y-116122285D01*
X106127715Y-116296534D01*
X106264622Y-116501429D01*
X106358925Y-116729097D01*
X106407000Y-116970787D01*
X106407000Y-117217213D01*
X106358925Y-117458903D01*
X106264622Y-117686571D01*
X106127715Y-117891466D01*
X105953466Y-118065715D01*
X105748571Y-118202622D01*
X105748570Y-118202623D01*
X105748569Y-118202623D01*
X105520903Y-118296925D01*
X105279214Y-118345000D01*
X105032786Y-118345000D01*
X104791097Y-118296925D01*
X104563431Y-118202623D01*
X104563430Y-118202623D01*
X104563429Y-118202622D01*
X104358534Y-118065715D01*
X104184285Y-117891466D01*
X104047378Y-117686571D01*
X103953075Y-117458903D01*
X103905000Y-117217213D01*
X103905000Y-116970787D01*
X103953075Y-116729097D01*
X104047378Y-116501429D01*
X104184285Y-116296534D01*
X104358534Y-116122285D01*
X104563429Y-115985378D01*
X104791097Y-115891075D01*
X105032786Y-115843000D01*
X105279214Y-115843000D01*
X105520903Y-115891075D01*
X105520903Y-115891075D01*
G37*
G36*
X167117009Y-103171591D02*
G01*
X167612658Y-103270181D01*
X168546440Y-103656967D01*
X169386822Y-104218492D01*
X170101508Y-104933178D01*
X170663033Y-105773560D01*
X171049819Y-106707342D01*
X171247000Y-107698641D01*
X171247000Y-108709359D01*
X171049819Y-109700658D01*
X170663033Y-110634440D01*
X170101508Y-111474822D01*
X169386822Y-112189508D01*
X168546440Y-112751033D01*
X167612658Y-113137819D01*
X167117009Y-113236409D01*
X166621361Y-113335000D01*
X165610639Y-113335000D01*
X165114991Y-113236409D01*
X164619342Y-113137819D01*
X163685560Y-112751033D01*
X162845178Y-112189508D01*
X162130492Y-111474822D01*
X161568967Y-110634440D01*
X161182181Y-109700658D01*
X160985000Y-108709359D01*
X160985000Y-107698641D01*
X161182181Y-106707342D01*
X161568967Y-105773560D01*
X162130492Y-104933178D01*
X162845178Y-104218492D01*
X163685560Y-103656967D01*
X164619342Y-103270181D01*
X165114992Y-103171590D01*
X165610639Y-103073000D01*
X166621361Y-103073000D01*
X167117009Y-103171591D01*
X167117009Y-103171591D01*
G37*
G36*
X105401239Y-100621101D02*
G01*
X105637053Y-100692634D01*
X105854381Y-100808799D01*
X106044871Y-100965129D01*
X106201201Y-101155619D01*
X106317366Y-101372947D01*
X106388899Y-101608761D01*
X106413053Y-101854000D01*
X106388899Y-102099239D01*
X106317366Y-102335053D01*
X106201201Y-102552381D01*
X106044871Y-102742871D01*
X105854381Y-102899201D01*
X105637053Y-103015366D01*
X105401239Y-103086899D01*
X105217457Y-103105000D01*
X105094543Y-103105000D01*
X104910761Y-103086899D01*
X104674947Y-103015366D01*
X104457619Y-102899201D01*
X104267129Y-102742871D01*
X104110799Y-102552381D01*
X103994634Y-102335053D01*
X103923101Y-102099239D01*
X103898947Y-101854000D01*
X103923101Y-101608761D01*
X103994634Y-101372947D01*
X104110799Y-101155619D01*
X104267129Y-100965129D01*
X104457619Y-100808799D01*
X104674947Y-100692634D01*
X104910761Y-100621101D01*
X105094543Y-100603000D01*
X105217457Y-100603000D01*
X105401239Y-100621101D01*
X105401239Y-100621101D01*
G37*
G36*
X124699009Y-90217591D02*
G01*
X125194658Y-90316181D01*
X126128440Y-90702967D01*
X126968822Y-91264492D01*
X127683508Y-91979178D01*
X128245033Y-92819560D01*
X128631819Y-93753342D01*
X128829000Y-94744641D01*
X128829000Y-95755359D01*
X128631819Y-96746658D01*
X128245033Y-97680440D01*
X127683508Y-98520822D01*
X126968822Y-99235508D01*
X126128440Y-99797033D01*
X125194658Y-100183819D01*
X124699008Y-100282410D01*
X124203361Y-100381000D01*
X123192639Y-100381000D01*
X122696992Y-100282410D01*
X122201342Y-100183819D01*
X121267560Y-99797033D01*
X120427178Y-99235508D01*
X119712492Y-98520822D01*
X119150967Y-97680440D01*
X118764181Y-96746658D01*
X118567000Y-95755359D01*
X118567000Y-94744641D01*
X118764181Y-93753342D01*
X119150967Y-92819560D01*
X119712492Y-91979178D01*
X120427178Y-91264492D01*
X121267560Y-90702967D01*
X122201342Y-90316181D01*
X122696992Y-90217590D01*
X123192639Y-90119000D01*
X124203361Y-90119000D01*
X124699009Y-90217591D01*
X124699009Y-90217591D01*
G37*
G36*
X98537009Y-83613591D02*
G01*
X99032658Y-83712181D01*
X99966440Y-84098967D01*
X100806822Y-84660492D01*
X101521508Y-85375178D01*
X102083033Y-86215560D01*
X102469819Y-87149342D01*
X102667000Y-88140641D01*
X102667000Y-89151359D01*
X102469819Y-90142658D01*
X102083033Y-91076440D01*
X101521508Y-91916822D01*
X100806822Y-92631508D01*
X99966440Y-93193033D01*
X99032658Y-93579819D01*
X98537008Y-93678410D01*
X98041361Y-93777000D01*
X97030639Y-93777000D01*
X96534992Y-93678410D01*
X96039342Y-93579819D01*
X95105560Y-93193033D01*
X94265178Y-92631508D01*
X93550492Y-91916822D01*
X92988967Y-91076440D01*
X92602181Y-90142658D01*
X92405000Y-89151359D01*
X92405000Y-88140641D01*
X92602181Y-87149342D01*
X92988967Y-86215560D01*
X93550492Y-85375178D01*
X94265178Y-84660492D01*
X95105560Y-84098967D01*
X96039342Y-83712181D01*
X96534991Y-83613591D01*
X97030639Y-83515000D01*
X98041361Y-83515000D01*
X98537009Y-83613591D01*
X98537009Y-83613591D01*
G37*
G36*
X168895009Y-80057591D02*
G01*
X169390658Y-80156181D01*
X170324440Y-80542967D01*
X171164822Y-81104492D01*
X171879508Y-81819178D01*
X172441033Y-82659560D01*
X172827819Y-83593342D01*
X173025000Y-84584641D01*
X173025000Y-85595359D01*
X172827819Y-86586658D01*
X172441033Y-87520440D01*
X171879508Y-88360822D01*
X171164822Y-89075508D01*
X170324440Y-89637033D01*
X169390658Y-90023819D01*
X168912149Y-90119000D01*
X168399361Y-90221000D01*
X167388639Y-90221000D01*
X166875851Y-90119000D01*
X166397342Y-90023819D01*
X165463560Y-89637033D01*
X164623178Y-89075508D01*
X163908492Y-88360822D01*
X163346967Y-87520440D01*
X162960181Y-86586658D01*
X162763000Y-85595359D01*
X162763000Y-84584641D01*
X162960181Y-83593342D01*
X163346967Y-82659560D01*
X163908492Y-81819178D01*
X164623178Y-81104492D01*
X165463560Y-80542967D01*
X166397342Y-80156181D01*
X166892991Y-80057591D01*
X167388639Y-79959000D01*
X168399361Y-79959000D01*
X168895009Y-80057591D01*
X168895009Y-80057591D01*
G37*
G36*
X126348903Y-77537075D02*
G01*
X126449236Y-77578634D01*
X126576571Y-77631378D01*
X126781466Y-77768285D01*
X126955715Y-77942534D01*
X127092622Y-78147429D01*
X127186925Y-78375097D01*
X127235000Y-78616787D01*
X127235000Y-78863213D01*
X127186925Y-79104903D01*
X127092622Y-79332571D01*
X126955715Y-79537466D01*
X126781466Y-79711715D01*
X126576571Y-79848622D01*
X126576570Y-79848623D01*
X126576569Y-79848623D01*
X126348903Y-79942925D01*
X126107214Y-79991000D01*
X125860786Y-79991000D01*
X125619097Y-79942925D01*
X125391431Y-79848623D01*
X125391430Y-79848623D01*
X125391429Y-79848622D01*
X125186534Y-79711715D01*
X125012285Y-79537466D01*
X124875378Y-79332571D01*
X124781075Y-79104903D01*
X124733000Y-78863213D01*
X124733000Y-78616787D01*
X124781075Y-78375097D01*
X124875378Y-78147429D01*
X125012285Y-77942534D01*
X125186534Y-77768285D01*
X125391429Y-77631378D01*
X125518765Y-77578634D01*
X125619097Y-77537075D01*
X125860786Y-77489000D01*
X126107214Y-77489000D01*
X126348903Y-77537075D01*
X126348903Y-77537075D01*
G37*
G36*
X110989239Y-77507101D02*
G01*
X111225053Y-77578634D01*
X111442381Y-77694799D01*
X111632871Y-77851129D01*
X111789201Y-78041619D01*
X111905366Y-78258947D01*
X111976899Y-78494761D01*
X112001053Y-78740000D01*
X111976899Y-78985239D01*
X111905366Y-79221053D01*
X111789201Y-79438381D01*
X111632871Y-79628871D01*
X111442381Y-79785201D01*
X111225053Y-79901366D01*
X110989239Y-79972899D01*
X110805457Y-79991000D01*
X110682543Y-79991000D01*
X110498761Y-79972899D01*
X110262947Y-79901366D01*
X110045619Y-79785201D01*
X109855129Y-79628871D01*
X109698799Y-79438381D01*
X109582634Y-79221053D01*
X109511101Y-78985239D01*
X109486947Y-78740000D01*
X109511101Y-78494761D01*
X109582634Y-78258947D01*
X109698799Y-78041619D01*
X109855129Y-77851129D01*
X110045619Y-77694799D01*
X110262947Y-77578634D01*
X110498761Y-77507101D01*
X110682543Y-77489000D01*
X110805457Y-77489000D01*
X110989239Y-77507101D01*
X110989239Y-77507101D01*
G37*
M02*
