G04 #@! TF.GenerationSoftware,KiCad,Pcbnew,(5.1.0)-1*
G04 #@! TF.CreationDate,2019-06-02T20:30:49+05:30*
G04 #@! TF.ProjectId,OpAmp,4f70416d-702e-46b6-9963-61645f706362,rev?*
G04 #@! TF.SameCoordinates,Original*
G04 #@! TF.FileFunction,Legend,Top*
G04 #@! TF.FilePolarity,Positive*
%FSLAX46Y46*%
G04 Gerber Fmt 4.6, Leading zero omitted, Abs format (unit mm)*
G04 Created by KiCad (PCBNEW (5.1.0)-1) date 2019-06-02 20:30:49*
%MOMM*%
%LPD*%
G04 APERTURE LIST*
%ADD10C,0.120000*%
%ADD11C,0.150000*%
G04 APERTURE END LIST*
D10*
X129198000Y-95250000D02*
G75*
G03X129198000Y-95250000I-5500000J0D01*
G01*
X103036000Y-88646000D02*
G75*
G03X103036000Y-88646000I-5500000J0D01*
G01*
X173394000Y-85090000D02*
G75*
G03X173394000Y-85090000I-5500000J0D01*
G01*
X159170000Y-116586000D02*
G75*
G03X159170000Y-116586000I-5500000J0D01*
G01*
X171616000Y-108204000D02*
G75*
G03X171616000Y-108204000I-5500000J0D01*
G01*
X124434000Y-81110000D02*
X124434000Y-76370000D01*
X124434000Y-76370000D02*
X112294000Y-76370000D01*
X112294000Y-76370000D02*
X112294000Y-81110000D01*
X112294000Y-81110000D02*
X124434000Y-81110000D01*
X124544000Y-78740000D02*
X124434000Y-78740000D01*
X112184000Y-78740000D02*
X112294000Y-78740000D01*
X105156000Y-103294000D02*
X105156000Y-103404000D01*
X105156000Y-115654000D02*
X105156000Y-115544000D01*
X102786000Y-103404000D02*
X102786000Y-115544000D01*
X107526000Y-103404000D02*
X102786000Y-103404000D01*
X107526000Y-115544000D02*
X107526000Y-103404000D01*
X102786000Y-115544000D02*
X107526000Y-115544000D01*
X143363001Y-83293001D02*
G75*
G02X141363001Y-83293001I-1000000J0D01*
G01*
X141363001Y-83293001D02*
X139128001Y-83293001D01*
X139128001Y-83293001D02*
X139128001Y-93573001D01*
X139128001Y-93573001D02*
X145598001Y-93573001D01*
X145598001Y-93573001D02*
X145598001Y-83293001D01*
X145598001Y-83293001D02*
X143363001Y-83293001D01*
D11*
X123364666Y-88202380D02*
X123364666Y-88916666D01*
X123317047Y-89059523D01*
X123221809Y-89154761D01*
X123078952Y-89202380D01*
X122983714Y-89202380D01*
X124364666Y-89202380D02*
X123793238Y-89202380D01*
X124078952Y-89202380D02*
X124078952Y-88202380D01*
X123983714Y-88345238D01*
X123888476Y-88440476D01*
X123793238Y-88488095D01*
X97202666Y-81598380D02*
X97202666Y-82312666D01*
X97155047Y-82455523D01*
X97059809Y-82550761D01*
X96916952Y-82598380D01*
X96821714Y-82598380D01*
X97631238Y-81693619D02*
X97678857Y-81646000D01*
X97774095Y-81598380D01*
X98012190Y-81598380D01*
X98107428Y-81646000D01*
X98155047Y-81693619D01*
X98202666Y-81788857D01*
X98202666Y-81884095D01*
X98155047Y-82026952D01*
X97583619Y-82598380D01*
X98202666Y-82598380D01*
X167560666Y-78042380D02*
X167560666Y-78756666D01*
X167513047Y-78899523D01*
X167417809Y-78994761D01*
X167274952Y-79042380D01*
X167179714Y-79042380D01*
X167941619Y-78042380D02*
X168560666Y-78042380D01*
X168227333Y-78423333D01*
X168370190Y-78423333D01*
X168465428Y-78470952D01*
X168513047Y-78518571D01*
X168560666Y-78613809D01*
X168560666Y-78851904D01*
X168513047Y-78947142D01*
X168465428Y-78994761D01*
X168370190Y-79042380D01*
X168084476Y-79042380D01*
X167989238Y-78994761D01*
X167941619Y-78947142D01*
X153336666Y-109538380D02*
X153336666Y-110252666D01*
X153289047Y-110395523D01*
X153193809Y-110490761D01*
X153050952Y-110538380D01*
X152955714Y-110538380D01*
X154241428Y-109871714D02*
X154241428Y-110538380D01*
X154003333Y-109490761D02*
X153765238Y-110205047D01*
X154384285Y-110205047D01*
X165782666Y-101156380D02*
X165782666Y-101870666D01*
X165735047Y-102013523D01*
X165639809Y-102108761D01*
X165496952Y-102156380D01*
X165401714Y-102156380D01*
X166735047Y-101156380D02*
X166258857Y-101156380D01*
X166211238Y-101632571D01*
X166258857Y-101584952D01*
X166354095Y-101537333D01*
X166592190Y-101537333D01*
X166687428Y-101584952D01*
X166735047Y-101632571D01*
X166782666Y-101727809D01*
X166782666Y-101965904D01*
X166735047Y-102061142D01*
X166687428Y-102108761D01*
X166592190Y-102156380D01*
X166354095Y-102156380D01*
X166258857Y-102108761D01*
X166211238Y-102061142D01*
X118197333Y-82562380D02*
X117864000Y-82086190D01*
X117625904Y-82562380D02*
X117625904Y-81562380D01*
X118006857Y-81562380D01*
X118102095Y-81610000D01*
X118149714Y-81657619D01*
X118197333Y-81752857D01*
X118197333Y-81895714D01*
X118149714Y-81990952D01*
X118102095Y-82038571D01*
X118006857Y-82086190D01*
X117625904Y-82086190D01*
X119149714Y-82562380D02*
X118578285Y-82562380D01*
X118864000Y-82562380D02*
X118864000Y-81562380D01*
X118768761Y-81705238D01*
X118673523Y-81800476D01*
X118578285Y-81848095D01*
X102238380Y-109640666D02*
X101762190Y-109974000D01*
X102238380Y-110212095D02*
X101238380Y-110212095D01*
X101238380Y-109831142D01*
X101286000Y-109735904D01*
X101333619Y-109688285D01*
X101428857Y-109640666D01*
X101571714Y-109640666D01*
X101666952Y-109688285D01*
X101714571Y-109735904D01*
X101762190Y-109831142D01*
X101762190Y-110212095D01*
X101333619Y-109259714D02*
X101286000Y-109212095D01*
X101238380Y-109116857D01*
X101238380Y-108878761D01*
X101286000Y-108783523D01*
X101333619Y-108735904D01*
X101428857Y-108688285D01*
X101524095Y-108688285D01*
X101666952Y-108735904D01*
X102238380Y-109307333D01*
X102238380Y-108688285D01*
X141601096Y-81745381D02*
X141601096Y-82554905D01*
X141648715Y-82650143D01*
X141696334Y-82697762D01*
X141791572Y-82745381D01*
X141982048Y-82745381D01*
X142077286Y-82697762D01*
X142124905Y-82650143D01*
X142172524Y-82554905D01*
X142172524Y-81745381D01*
X143172524Y-82745381D02*
X142601096Y-82745381D01*
X142886810Y-82745381D02*
X142886810Y-81745381D01*
X142791572Y-81888239D01*
X142696334Y-81983477D01*
X142601096Y-82031096D01*
M02*
